<svg xmlns="http://www.w3.org/2000/svg" viewBox="0 0 172.47 55.57"><path d="M116.73 27.16h-25.6V32h7.91v22.39h6.1V32h7.97c.23-.57.51-1.12.83-1.65.75-1.24 1.69-2.29 2.79-3.19ZM17.12 36.62H5.89v-4.74h26.45v-4.72H-.22v27.22h6.11V41.34h9.15l2.08-4.72zM41.3 31.8h5.59V4.42h18.33V-.01H33.63v4.43h7.67V31.8z"/><path d="M65.53 10.05V6.04H48.51V25.5h34.75v-4.32h-29v-3.61h10.09v-4.18H54.26v-3.34h11.27zM96.72 20.41h3.45c1.79 0 3.34-.3 4.66-.89 1.25-.56 2.22-1.36 2.93-2.38.03.05.05.1.08.15.95 1.56 2.26 2.79 3.93 3.67 1.67.89 3.54 1.33 5.63 1.33s3.97-.44 5.63-1.33c1.67-.88 2.97-2.11 3.93-3.67.57-.94.95-1.96 1.18-3.04.55.43 1.16.78 1.83 1.03 1.09.4 2.45.78 4.07 1.13 1.48.33 2.55.64 3.22.94.67.3 1 .76 1 1.37 0 1.17-1.17 1.76-3.51 1.76-1.23 0-2.49-.2-3.76-.59-1.27-.39-2.39-.9-3.36-1.54l-2 4.5c1.03.72 2.36 1.29 4.01 1.73 1.64.43 3.34.65 5.09.65 2.06 0 3.8-.31 5.24-.94 1.44-.63 2.52-1.46 3.24-2.51a6.067 6.067 0 0 0 1.08-3.51c0-1.5-.4-2.69-1.19-3.56a7.078 7.078 0 0 0-2.81-1.91c-1.08-.4-2.44-.78-4.08-1.13-1.46-.31-2.52-.61-3.18-.89-.66-.29-.99-.72-.99-1.29s.28-1.04.83-1.4c.55-.36 1.44-.54 2.65-.54 1.93 0 3.93.55 5.98 1.66l1.88-4.53c-1.05-.62-2.26-1.08-3.64-1.4-1.38-.32-2.77-.48-4.19-.48-2.08 0-3.83.31-5.26.92-1.43.62-2.5 1.45-3.22 2.51-.08.12-.14.25-.21.37-.94-1.49-2.21-2.67-3.82-3.53-1.67-.88-3.54-1.33-5.63-1.33s-3.97.44-5.63 1.33c-1.67.89-2.98 2.11-3.93 3.67-.3.49-.54 1.02-.74 1.55a7.372 7.372 0 0 0-2.27-1.58c-1.32-.59-2.87-.89-4.66-.89h-9.04v19.69h5.59v-5.09Zm16.04-11.35a5.04 5.04 0 0 1 1.92-1.99c.81-.47 1.71-.71 2.71-.71s1.9.24 2.71.71a5.04 5.04 0 0 1 1.92 1.99c.47.86.71 1.84.71 2.95s-.24 2.09-.71 2.95a5.04 5.04 0 0 1-1.92 1.99c-.81.47-1.71.71-2.71.71s-1.9-.24-2.71-.71a5.04 5.04 0 0 1-1.92-1.99c-.47-.86-.71-1.84-.71-2.95s.24-2.09.71-2.95Zm-16.04 1.16h3.11c1.15 0 2.01.25 2.6.76.58.51.88 1.22.88 2.15s-.29 1.63-.88 2.13c-.58.5-1.45.75-2.6.75h-3.11v-5.79Z"/><path d="M91.13-.01h15.61v4.37H91.13zM77.31 31.81l5.79-4.69h-5.85l-4.13 4.69h4.19zM168.26 43.12c-1.08-.4-2.44-.78-4.08-1.13-1.46-.31-2.52-.61-3.18-.89-.66-.29-.99-.72-.99-1.29s.28-1.04.83-1.4c.55-.36 1.44-.54 2.65-.54 1.93 0 3.93.55 5.98 1.66l1.88-4.53c-1.05-.62-2.26-1.08-3.64-1.4-1.38-.32-2.77-.48-4.19-.48-2.08 0-3.83.31-5.26.92-.99.43-1.79.96-2.44 1.6-.18-1.57-.67-3.01-1.47-4.32-1.04-1.71-2.47-3.04-4.29-4.01-1.82-.97-3.87-1.45-6.15-1.45s-4.33.48-6.15 1.45c-1.82.97-3.25 2.3-4.29 4.01s-1.56 3.63-1.56 5.77.52 4.06 1.56 5.77 2.47 3.04 4.29 4.01c1.82.97 3.87 1.45 6.15 1.45s4.33-.48 6.15-1.45c1.82-.97 3.25-2.3 4.29-4.01.04-.07.07-.15.12-.22.18.39.39.75.66 1.06.78.88 1.72 1.53 2.81 1.93 1.09.4 2.45.78 4.07 1.13 1.48.33 2.55.64 3.22.94.67.3 1 .76 1 1.37 0 1.17-1.17 1.76-3.51 1.76-1.23 0-2.49-.2-3.76-.59-1.27-.39-2.39-.9-3.36-1.54l-2 4.5c1.03.72 2.36 1.29 4.01 1.73 1.64.43 3.34.65 5.09.65 2.06 0 3.8-.31 5.24-.94 1.44-.63 2.52-1.46 3.24-2.51a6.067 6.067 0 0 0 1.08-3.51c0-1.5-.4-2.69-1.19-3.56a7.078 7.078 0 0 0-2.81-1.91Zm-19.28-2.81a5.42 5.42 0 0 1-2.1 2.17c-.88.51-1.87.77-2.96.77s-2.08-.26-2.96-.77c-.88-.51-1.58-1.24-2.1-2.17-.51-.94-.77-2.01-.77-3.22s.26-2.29.77-3.22a5.42 5.42 0 0 1 2.1-2.17c.88-.51 1.87-.77 2.96-.77s2.08.26 2.96.77c.88.51 1.58 1.24 2.1 2.17.51.94.77 2.01.77 3.22s-.26 2.29-.77 3.22Z"/><path d="M155.2 26.36h17.05v4.37H155.2zM113.92 50.01h30v4.37h-30zM68.29 33.42l-6.96 15.77V31.83h10.84v-4.68H48.51v4.68h6.71v22.55h2.05l1.78-.03v.03h6.17l1.68-4.16h9.06l1.68 4.16h6.31l-9.28-20.96h-6.38Zm.39 12.33 2.75-6.86 2.76 6.86h-5.51ZM106.76 33.61h5.55v20.77h-5.55z"/><path d="m48.51 44.3-9.53-11.5h-5.03v17.49L26.52 33.5h-6.45l-9.22 20.88h6.18l1.68-4.16h9.06l1.68 4.16h10.47v-11.5l9.53 11.5h4.11V33.42h-5.07V44.3ZM20.5 45.75l2.76-6.86 2.76 6.86h-5.51ZM72.07 9.56l5.06 8.25h2.49l5.08-8.53.06 23.31c1.31-.4 2.83-.61 4.57-.61.19 0 .38.01.57.02L89.84-.01h-4.6L78.46 11.4 71.51-.01h-4.6v19.77h5.17V9.56ZM93.27 42.79c-.99-.37-2.24-.71-3.75-1.03-1.34-.28-2.31-.56-2.92-.82-.6-.26-.91-.66-.91-1.19s.25-.96.76-1.29c.51-.33 1.32-.5 2.44-.5 1.77 0 3.61.51 5.5 1.53l1.73-4.16c-.96-.57-2.08-1-3.34-1.29-1.27-.29-2.55-.44-3.85-.44-1.91 0-3.52.28-4.83.85s-2.3 1.34-2.96 2.31c-.66.97-.99 2.06-.99 3.27 0 1.38.36 2.47 1.08 3.29.72.81 1.58 1.4 2.58 1.77 1 .37 2.25.71 3.74 1.03 1.36.3 2.35.59 2.96.86.61.27.92.69.92 1.26 0 1.08-1.08 1.61-3.23 1.61-1.13 0-2.29-.18-3.46-.54-.67-.2-1.28-.45-1.86-.73l2.39 5.4c.95.15 1.91.23 2.89.23 1.89 0 3.49-.29 4.82-.86 1.32-.58 2.31-1.35 2.97-2.31.66-.96.99-2.04.99-3.23 0-1.38-.36-2.47-1.09-3.27-.73-.8-1.59-1.39-2.58-1.76ZM119.64 46.88c1.8.96 3.83 1.43 6.09 1.43 1.97 0 3.75-.35 5.33-1.05.97-.43 1.83-.99 2.6-1.65-.57-.61-1.1-1.26-1.55-2-.51-.84-.91-1.73-1.19-2.67-1.36 1.53-2.99 2.31-4.89 2.31-1.17 0-2.22-.26-3.13-.77a5.425 5.425 0 0 1-2.13-2.17c-.5-.94-.76-2.01-.76-3.22s.25-2.29.76-3.22c.5-.94 1.21-1.66 2.13-2.17.91-.51 1.96-.77 3.13-.77 1.9 0 3.53.78 4.89 2.31.29-.93.68-1.83 1.19-2.67.45-.73.97-1.38 1.55-2-.77-.66-1.63-1.22-2.6-1.65-1.58-.7-3.36-1.05-5.33-1.05-2.26 0-4.29.48-6.09 1.43-1.8.96-3.21 2.29-4.24 3.99-1.03 1.71-1.54 3.64-1.54 5.8s.51 4.09 1.54 5.8 2.44 3.04 4.24 3.99Z"/></svg>